<svg width="1792" height="1024" viewBox="0 0 1792 1024" fill="none" xmlns="http://www.w3.org/2000/svg">
  <rect width="1792" height="1024" fill="#DDFCE4"/>

  <!-- Sports Car - Left -->
  <g transform="translate(200, 350)" stroke="#228B22" stroke-width="6" fill="none" stroke-linecap="round" stroke-linejoin="round">
    <!-- Body -->
    <path d="M40 120 C20 120 10 100 10 90 L10 80 C10 70 20 60 30 60 L80 60 L100 30 C105 22 115 15 130 15 L220 15 C235 15 250 22 260 35 L290 70 L340 75 C360 77 380 90 380 110 L380 120 C380 130 370 140 355 140 L320 140"/>
    <path d="M120 140 L230 140"/>
    <!-- Front detail -->
    <path d="M30 85 L70 85"/>
    <path d="M355 100 L340 100"/>
    <!-- Windows -->
    <path d="M105 60 L125 25 C130 20 140 18 150 18 L210 18 C225 18 235 22 242 30 L270 60"/>
    <path d="M175 18 L175 60"/>
    <!-- Wheels -->
    <circle cx="95" cy="140" r="28"/>
    <circle cx="95" cy="140" r="14"/>
    <circle cx="295" cy="140" r="28"/>
    <circle cx="295" cy="140" r="14"/>
  </g>

  <!-- EV Car with Lightning - Center -->
  <g transform="translate(720, 350)" stroke="#228B22" stroke-width="6" fill="none" stroke-linecap="round" stroke-linejoin="round">
    <!-- Body -->
    <path d="M30 140 L30 100 L80 40 L270 40 L320 100 L320 140"/>
    <path d="M80 140 L270 140"/>
    <!-- Wheels -->
    <circle cx="55" cy="140" r="28"/>
    <circle cx="55" cy="140" r="14"/>
    <circle cx="295" cy="140" r="28"/>
    <circle cx="295" cy="140" r="14"/>
    <!-- Lightning bolt -->
    <path d="M175 -60 L155 0 L180 0 L160 50" stroke-width="8"/>
    <path d="M175 -60 L195 -60 L175 -10 L195 -10" stroke-width="8"/>
  </g>

  <!-- SUV - Right -->
  <g transform="translate(1200, 350)" stroke="#228B22" stroke-width="6" fill="none" stroke-linecap="round" stroke-linejoin="round">
    <!-- Body -->
    <path d="M20 140 L20 70 L50 70 L70 30 L230 30 L250 70 L350 70 L350 140"/>
    <path d="M80 140 L270 140"/>
    <!-- Windows -->
    <path d="M75 70 L90 35 L150 35 L150 70"/>
    <path d="M155 70 L155 35 L210 35 L225 70"/>
    <!-- Door lines -->
    <path d="M150 70 L150 130"/>
    <path d="M230 70 L230 130"/>
    <!-- Rear detail -->
    <path d="M340 85 L340 120"/>
    <!-- Wheels -->
    <circle cx="55" cy="140" r="28"/>
    <circle cx="55" cy="140" r="14"/>
    <circle cx="295" cy="140" r="28"/>
    <circle cx="295" cy="140" r="14"/>
  </g>

  <!-- Text -->
  <text x="896" y="620" fill="#228B22" font-family="Arial, sans-serif" font-weight="bold" font-size="96" text-anchor="middle">EV JUICE</text>
  <text x="896" y="690" fill="#228B22" font-family="Arial, sans-serif" font-size="32" text-anchor="middle">Electric Vehicle News</text>
</svg>
